Coordinates
version=1
nRows=29
nColumns=24
inDegrees=yes

Units are S.I. units (second, meters, Newtons, ...)
Angles are in degrees.

endheader
time	pelvis_tilt	pelvis_list	pelvis_rotation	pelvis_tx	pelvis_ty	pelvis_tz	hip_flexion_r	hip_adduction_r	hip_rotation_r	knee_angle_r	ankle_angle_r	subtalar_angle_r	mtp_angle_r	hip_flexion_l	hip_adduction_l	hip_rotation_l	knee_angle_l	ankle_angle_l	subtalar_angle_l	mtp_angle_l	lumbar_extension	lumbar_bending	lumbar_rotation
      0.70400000	     -4.92092260	      3.88574645	      7.18949318	     -0.00029867	      0.97070237	      0.28784337	     37.19563956	     -8.50157437	     -8.97268349	     -6.84069469	      6.38124141	     -8.70745258	     -0.56314069	    -16.29737743	      4.09733675	      0.27819588	     -3.66582850	     11.40778949	     -7.03951399	     -0.22789032	     -5.99982119	     -1.37655100	     -0.76310932
      0.70816667	     -4.89133831	      3.83634695	      7.22939772	      0.00541389	      0.96969864	      0.28816240	     37.01511885	     -8.46491441	     -9.11997469	     -7.36419814	      6.47426314	     -8.50514352	     -6.85412390	    -16.56080428	      3.94847664	      0.28975360	     -3.89915377	     11.51458787	     -6.89100052	     -4.73394446	     -6.02526248	     -1.19831996	     -0.76869689
      0.71233333	     -4.94251104	      3.78565419	      7.23127130	      0.01124003	      0.96855494	      0.28858705	     36.92802639	     -8.40111669	     -9.20085144	     -7.90190047	      6.50364715	     -8.48835409	     -6.83725844	    -16.75598666	      3.81638826	      0.28993369	     -4.09392674	     11.44946792	     -6.85562962	     -4.74764443	     -5.94557372	     -1.04279775	     -0.61059496
      0.71650000	     -4.97009113	      3.72384182	      7.24882882	      0.01709220	      0.96748792	      0.28899367	     36.80568489	     -8.33774030	     -9.34155223	     -8.44099828	      6.49255563	     -8.42468303	     -6.81150297	    -16.95588556	      3.66251746	      0.25601754	     -4.32576456	     11.40556808	     -6.75979238	     -4.75210189	     -5.88893854	     -0.86745900	     -0.50767363
      0.72066667	     -4.98902914	      3.63654671	      7.27285225	      0.02299942	      0.96647836	      0.28938006	     36.65482136	     -8.25401652	     -9.51067229	     -8.94871811	      6.40342506	     -8.36679325	     -6.77448166	    -17.15918565	      3.47838954	      0.21840633	     -4.56344769	     11.34115222	     -6.64954847	     -4.74553999	     -5.83839345	     -0.65870134	     -0.44035644
      0.72483333	     -4.96071643	      3.52170452	      7.29710403	      0.02896052	      0.96559078	      0.28976791	     36.43232485	     -8.13916271	     -9.71669544	     -9.41333441	      6.24616156	     -8.34159471	     -6.69929567	    -17.41245716	      3.25812807	      0.17980399	     -4.79551330	     11.29485735	     -6.51905712	     -4.71555323	     -5.82682795	     -0.41092102	     -0.39088033
      0.72900000	     -4.92534894	      3.39033674	      7.32434236	      0.03491064	      0.96476704	      0.29019483	     36.18828865	     -8.00063799	     -9.90557678	     -9.83254653	      6.02769396	     -8.39051006	     -6.57958141	    -17.64587039	      3.01634418	      0.12387513	     -5.07083924	     11.19977307	     -6.43310929	     -4.65005021	     -5.84559595	     -0.13589772	     -0.36152625
      0.73316667	     -4.98558609	      3.33152692	      7.31260348	      0.04085158	      0.96378931	      0.29070191	     36.08517413	     -7.91700350	    -10.02823088	    -10.28395433	      5.74648571	     -8.39984435	     -6.54999385	    -17.78628960	      2.87757599	      0.08460323	     -5.33912697	     11.01015942	     -6.40985340	     -4.63042213	     -5.74893997	      0.02697045	     -0.32747906
      0.73733333	     -4.86790096	      3.10463984	      7.32649604	      0.04692245	      0.96322430	      0.29115994	     35.70538558	     -7.66529346	    -10.27563546	    -10.55571523	      5.31372257	     -8.55271437	     -6.33156578	    -18.09368142	      2.52415653	     -0.02983793	     -5.61469506	     10.89860619	     -6.23046648	     -4.46600638	     -5.84841500	      0.42652441	     -0.26821969
      0.74150000	     -4.83947142	      2.92894826	      7.31009220	      0.05296244	      0.96253748	      0.29169456	     35.45321739	     -7.44893353	    -10.45505068	    -10.83702840	      4.81311456	     -8.72237759	     -6.06012686	    -18.29595468	      2.24915098	     -0.13529123	     -5.91716710	     10.71735110	     -6.15300507	     -4.24057631	     -5.84895903	      0.74772176	     -0.19793964
      0.74566667	     -4.82148186	      2.74202838	      7.27491040	      0.05901710	      0.96189448	      0.29226784	     35.21498686	     -7.21001536	    -10.62330931	    -11.07899320	      4.21685149	     -8.92706256	     -5.76867587	    -18.47424136	      1.97066810	     -0.26165792	     -6.23873033	     10.50459495	     -6.09305706	     -3.97782406	     -5.83663052	      1.08049386	     -0.11753513
      0.74983333	     -4.91058864	      2.56304797	      7.23090013	      0.06511778	      0.96112414	      0.29280553	     35.11783401	     -6.99521914	    -10.80735265	    -11.34317252	      3.60811433	     -9.06656336	     -5.66259276	    -18.53460575	      1.72860256	     -0.34472897	     -6.57198706	     10.23682398	     -6.15272269	     -3.87255426	     -5.68369024	      1.39849216	     -0.02138288
      0.75400000	     -4.79302613	      2.32072205	      7.12537424	      0.07116859	      0.96076881	      0.29358641	     34.76803710	     -6.63541813	    -10.90279327	    -11.46167632	      2.77087033	     -9.45077558	     -5.34845277	    -18.77861794	      1.39034081	     -0.62209239	     -6.94945846	      9.98880422	     -5.99611023	     -3.54861376	     -5.80984596	      1.79812702	      0.09504970
      0.75816667	     -4.89611221	      2.11288392	      7.05792704	      0.07728261	      0.96012929	      0.29415489	     34.69747166	     -6.38316008	    -11.08038391	    -11.67200803	      1.99349998	     -9.66203652	     -5.22846364	    -18.78673213	      1.13291768	     -0.72927010	     -7.34092597	      9.65511769	     -6.10371022	     -3.41329615	     -5.64183437	      2.15289583	      0.22264215
      0.76233333	     -4.88947120	      1.85904644	      6.83640606	      0.08339956	      0.95966074	      0.29524141	     34.52206682	     -5.94709787	    -11.03794617	    -11.79317774	      0.98838057	    -10.19917467	     -0.62432411	    -18.87757677	      0.81958818	     -1.21175801	     -7.78953726	      9.31968055	     -5.90789762	      1.97168297	     -5.63433767	      2.52603485	      0.45518188
      0.76650000	     -4.93495263	      1.63679395	      6.75007087	      0.08946324	      0.95929431	      0.29580149	     34.40790927	     -5.67240195	    -11.20951839	    -11.98119340	      0.10044470	    -10.46905205	     -0.63909010	    -18.90810634	      0.55793878	     -1.30121119	     -8.23244954	      8.89180088	     -6.12895999	      2.01148385	     -5.55482078	      2.91942971	      0.58175782
      0.77066667	     -4.85111237	      1.35929901	      6.55105419	      0.09552839	      0.95916403	      0.29675998	     34.15904566	     -5.23519674	    -11.21246453	    -12.10284317	     -0.91423341	    -10.94967437	     -0.62931165	    -19.04743407	      0.22544340	     -1.67059789	     -8.72816625	      8.49848133	     -6.07530274	      2.16191794	     -5.65980350	      3.35063294	      0.77188020
      0.77483333	     -4.93246482	      1.10496068	      6.39147948	      0.10162227	      0.95886493	      0.29754475	     34.11718715	     -4.88262840	    -11.26171648	    -12.31158820	     -1.79394269	    -11.27095192	     -0.61605347	    -18.97917274	     -0.05483619	     -1.92571972	     -9.28630830	      8.02293497	     -6.23297103	      2.27377120	     -5.55048341	      3.75598425	      0.95049163
      0.77900000	     -4.92106535	      0.84521783	      6.10605104	      0.10770445	      0.95871436	      0.29866300	     34.01704636	     -4.43028957	    -11.16579797	    -12.54571089	     -2.77161765	    -11.76398595	     -0.57084522	    -19.00647604	     -0.33340298	     -2.39529799	     -9.86092344	      7.56974192	     -6.18284277	      2.52679810	     -5.57471999	      4.15174097	      1.22431517
      0.78316667	     -5.01802104	      0.59321297	      5.90957614	      0.11383648	      0.95852677	      0.29942840	     34.04475068	     -4.08646210	    -11.21738534	    -12.86818145	     -3.54295620	    -11.98373024	     -0.55293523	    -18.88921785	     -0.58794691	     -2.67487439	    -10.47794903	      7.00290988	     -6.41770360	      2.64977207	     -5.44091581	      4.57134862	      1.38448250
      0.78733333	     -5.02710110	      0.33727891	      5.57990340	      0.11988155	      0.95849265	      0.30069625	     33.99757162	     -3.61038323	    -11.00764137	    -13.15974644	     -4.44042875	    -12.50347337	     -0.49600517	    -18.82747809	     -0.85639609	     -3.22328797	    -11.17999213	      6.47647945	     -6.37033591	      3.01385922	     -5.46876949	      4.94065934	      1.72031951
      0.79150000	     -5.09693382	      0.07630249	      5.29052262	      0.12598484	      0.95845653	      0.30176430	     34.02781701	     -3.18628705	    -10.89034652	    -13.52396075	     -5.18584807	    -12.84063735	     -0.43980059	    -18.67674140	     -1.11956142	     -3.68748494	    -11.92115079	      5.87019685	     -6.48320188	      3.46109716	     -5.40182925	      5.34056670	      1.99790980
      0.79566667	     -5.16650372	     -0.17684253	      4.99498657	      0.13208113	      0.95849412	      0.30283767	     34.07000363	     -2.77164130	    -10.75809439	    -13.92976732	     -5.85060642	    -13.13260563	     -0.39156254	    -18.49480665	     -1.37532254	     -4.16451405	    -12.71886912	      5.21926072	     -6.62218096	      3.98937985	     -5.34127068	      5.73213182	      2.25675625
      0.79983333	     -5.22814396	     -0.40928077	      4.78783333	      0.13815731	      0.95867019	      0.30359071	     34.10669358	     -2.46572935	    -10.77911906	    -14.40300175	     -6.31042078	    -13.06477709	     -0.38635070	    -18.28054053	     -1.61478139	     -4.48308417	    -13.56444752	      4.48051333	     -6.91906854	      4.09394747	     -5.28544409	      6.12984607	      2.32124662
      0.80400000	     -5.29868973	     -0.66520061	      4.38607642	      0.14425543	      0.95876388	      0.30501833	     34.17727059	     -1.96600385	    -10.47708320	    -14.85935927	     -6.91756640	    -13.52914895	     -0.36610216	    -18.03809939	     -1.87884982	     -5.16921268	    -14.49504843	      3.81063259	     -6.92881539	      4.78154393	     -5.23854410	      6.49288771	      2.73465353
      0.80816667	     -5.34778982	     -0.90161958	      4.19602407	      0.15030926	      0.95910015	      0.30576568	     34.19051726	     -1.66510295	    -10.47979558	    -15.34800706	     -7.24090804	    -13.42387944	     -0.36668526	    -17.75390286	     -2.14051354	     -5.49820816	    -15.48306008	      3.01254657	     -7.27017015	      4.89950617	     -5.20288804	      6.89341840	      2.78680861
      0.81233333	     -5.39793419	     -1.13747399	      3.97594750	      0.15636105	      0.95946527	      0.30662776	     34.20696530	     -1.33780089	    -10.43211507	    -15.84088021	     -7.57465201	    -13.42904404	     -0.37108736	    -17.43532655	     -2.40775172	     -5.89147293	    -16.53465638	      2.19150647	     -7.58100906	      5.03987883	     -5.16830390	      7.28279717	      2.88977281
      0.81650000	     -5.58065274	     -1.27912395	      3.51843323	      0.16234373	      0.95946173	      0.30829049	     34.43927129	     -0.91976331	     -9.99694075	    -16.43026294	     -7.85628351	    -13.68386941	     -0.91195447	    -16.95461000	     -2.56946020	     -6.63378074	    -17.68182838	      1.35487418	     -7.76915910	     13.92331200	     -5.02031104	      7.47251099	      3.31344333
      0.82066667	     -5.58535703	     -1.54068924	      3.34980212	      0.16839044	      0.96001069	      0.30907924	     34.37168251	     -0.59846294	    -10.02529240	    -16.89713344	     -8.06257740	    -13.56434059	     -0.91206146	    -16.59432349	     -2.90600300	     -7.03171786	    -18.88175792	      0.50827188	     -8.04439700	     13.92593754	     -5.03011272	      7.89606335	      3.37611869
